<svg width="180" height="180" viewBox="0 0 180 180" fill="none" xmlns="http://www.w3.org/2000/svg">
  <defs>
    <linearGradient id="bg" x1="0" y1="180" x2="180" y2="0" gradientUnits="userSpaceOnUse">
      <stop offset="0%" stop-color="#7B2FBE"/>
      <stop offset="60%" stop-color="#3B5EDB"/>
      <stop offset="100%" stop-color="#2563EB"/>
    </linearGradient>
  </defs>
  <!-- Background with rounded corners -->
  <rect width="180" height="180" rx="32" fill="url(#bg)"/>
  <!-- W shape (two V strokes) -->
  <path d="M22 52 L52 128 L78 70 L90 102 L102 70 L128 128 L158 52"
        stroke="white" stroke-width="15" stroke-linecap="round" stroke-linejoin="round" fill="none"/>
  <!-- Rocket body -->
  <path d="M90 16 C83 28 79 45 79 62 L90 74 L101 62 C101 45 97 28 90 16Z" fill="white"/>
  <!-- Rocket window -->
  <circle cx="90" cy="50" r="7" fill="#3B5EDB"/>
  <!-- Rocket fins -->
  <path d="M79 62 L68 78 L79 72Z" fill="white" opacity="0.85"/>
  <path d="M101 62 L112 78 L101 72Z" fill="white" opacity="0.85"/>
  <!-- Rocket exhaust -->
  <path d="M84 74 C82 86 86 94 90 90 C94 94 98 86 96 74Z" fill="white" opacity="0.55"/>
</svg>
